<svg width="173" height="43" viewBox="0 0 173 43" fill="none" xmlns="http://www.w3.org/2000/svg">
<path d="M75.6952 36.7724C75.6952 37.5542 75.4154 38.225 74.8558 38.7846C74.2961 39.3443 73.6254 39.6241 72.8435 39.6241H70V19.1723C70 15.2629 71.144 12.5964 73.4361 11.1726C75.724 9.74877 78.2095 9.03687 80.8926 9.03687C82.2876 9.03687 83.699 9.30434 85.1228 9.83107C86.5467 10.3619 87.6783 11.1314 88.5178 12.1355C90.1926 14.3124 91.0321 17.1065 91.0321 20.5138C91.0321 24.0321 90.1926 26.8798 88.5178 29.0607C86.8429 31.1841 84.6908 32.2458 82.0654 32.2458C80.6703 32.2458 79.4399 31.9948 78.3783 31.4927C77.259 30.9331 76.366 30.0689 75.6952 28.8961V36.7724ZM85.2463 20.7607C85.2463 18.5838 84.8266 16.9049 83.9912 15.7321C83.1517 14.5593 81.9501 13.9708 80.3905 13.9708C78.8803 13.9708 77.7116 14.5593 76.8721 15.7321C76.0903 16.7938 75.6994 18.4686 75.6994 20.7607C75.6994 22.884 76.1191 24.4766 76.9544 25.5383C77.7939 26.711 78.9914 27.2995 80.5551 27.2995C82.0077 27.2995 83.1517 26.711 83.9912 25.5383C84.8307 24.3655 85.2463 22.7729 85.2463 20.7607Z" fill="black"/>
<path d="M92.7305 3H95.7468C96.5287 3 97.1994 3.26748 97.7591 3.79421C98.3146 4.32505 98.5985 4.98346 98.5985 5.7612V31.8178H92.7305V3Z" fill="black"/>
<path d="M115.112 30.9001C113.939 31.5174 112.696 31.8918 111.383 32.0317C110.071 32.1717 108.91 32.2416 107.906 32.2416C105.894 32.2416 104.137 31.6984 102.627 30.6079C101.116 29.5174 100.363 27.7192 100.363 25.2049C100.363 22.8593 101.046 21.1845 102.417 20.1763C103.783 19.1722 105.532 18.5014 107.651 18.164C107.931 18.164 108.264 18.1228 108.655 18.0364C109.046 17.9541 109.495 17.8842 109.997 17.8266C112.453 17.4932 113.684 16.7649 113.684 15.6497C113.684 14.8102 113.252 14.267 112.383 14.016C111.515 13.765 110.721 13.6374 109.997 13.6374C109.215 13.6374 108.515 13.7485 107.902 13.9708C107.285 14.193 106.84 14.6127 106.561 15.2258H100.952C101.174 13.4934 101.956 12.0696 103.297 10.9544C104.808 9.67051 106.956 9.02856 109.75 9.02856C112.877 9.02856 115.223 9.55941 116.786 10.6211C118.408 11.7404 119.214 13.3041 119.214 15.3123V22.9375C119.214 25.1719 118.807 26.9167 118 28.1759C117.194 29.4351 116.231 30.3405 115.112 30.9001ZM113.774 20.596C112.992 20.9869 111.902 21.3491 110.507 21.6865L108.581 22.1062C107.577 22.386 106.849 22.7482 106.404 23.1967C106.013 23.814 105.82 24.4271 105.82 25.0403C105.82 25.8797 106.071 26.5464 106.573 27.0525C107.075 27.5011 107.799 27.7233 108.75 27.7233C110.313 27.7233 111.544 27.2789 112.437 26.3818C113.33 25.4888 113.778 24.2584 113.778 22.6947V20.596H113.774Z" fill="black"/>
<path d="M140.355 31.8219H137.421C136.582 31.8219 135.899 31.5585 135.368 31.0277C134.837 30.4969 134.574 29.8138 134.574 28.9743V17.5797C134.574 16.2382 134.166 15.2629 133.36 14.6457C132.549 14.0325 131.644 13.7239 130.636 13.7239C129.632 13.7239 128.734 14.0325 127.957 14.6457C127.175 15.2629 126.784 16.2382 126.784 17.5797V31.8219H120.92V18.7525C120.92 14.9543 121.912 12.4153 123.895 11.1273C125.879 9.84338 128.072 9.14382 130.471 9.03271C132.928 9.03271 135.191 9.67466 137.257 10.9586C139.322 12.2425 140.355 14.8432 140.355 18.7484V31.8219Z" fill="black"/>
<path d="M157.634 24.9498H161.823C161.206 27.2953 160.033 29.0854 158.305 30.3117C156.573 31.5956 154.396 32.2375 151.77 32.2375C148.585 32.2375 146.1 31.2047 144.314 29.1389C142.524 27.1266 141.631 24.2502 141.631 20.5096C141.631 16.9377 142.495 14.1436 144.227 12.1314C146.013 10.0656 148.499 9.03271 151.684 9.03271C155.034 9.03271 157.634 10.0368 159.478 12.0491C161.264 14.1148 162.157 16.9912 162.157 20.6783C162.157 20.9005 162.157 21.0981 162.157 21.2668C162.157 21.4355 162.157 21.5466 162.157 21.6001C162.157 21.8799 162.128 22.0733 162.074 22.1844H147.581C147.635 23.9169 148.054 25.2008 148.836 26.0403C149.561 26.9332 150.651 27.3818 152.104 27.3818C153.054 27.3818 153.865 27.1884 154.532 26.7974C154.7 26.7439 154.853 26.6452 154.992 26.5053C155.132 26.3653 155.285 26.2131 155.453 26.0444C155.507 25.8757 155.717 25.6534 156.083 25.3736C156.445 25.0897 156.964 24.9498 157.634 24.9498ZM147.581 18.415H156.128C156.017 16.9089 155.626 15.7896 154.955 15.0654C154.227 14.2835 153.194 13.8926 151.857 13.8926C150.626 13.8926 149.622 14.2835 148.84 15.0654C148.054 15.8473 147.635 16.9624 147.581 18.415Z" fill="black"/>
<path d="M173.001 31.8219C171.157 31.933 169.162 31.9042 167.009 31.7396C164.857 31.5709 163.783 30.2047 163.783 27.6327V3H166.8C167.524 3 168.17 3.27982 168.725 3.83947C169.281 4.39912 169.565 5.06987 169.565 5.85174V9.62113H173.001V10.7939C173.001 11.6334 172.721 12.3165 172.161 12.8473C171.602 13.3782 170.931 13.6415 170.149 13.6415H169.561V26.0402C169.561 26.9908 170.12 27.464 171.236 27.464H172.997V31.8219H173.001Z" fill="black"/>
<path d="M39.5984 5.49623C41.0804 5.02512 41.897 3.44099 41.4259 1.9609C40.9548 0.478842 39.3707 -0.33776 37.8906 0.133356C36.4085 0.604473 35.5919 2.1886 36.063 3.66869C36.5342 5.15075 38.1183 5.96931 39.5984 5.49623Z" fill="#3685FB"/>
<path d="M45.5831 3.93565C46.2622 3.71972 46.6352 2.99538 46.4193 2.31618C46.2034 1.63699 45.479 1.26402 44.7998 1.47995C44.1206 1.69588 43.7477 2.42022 43.9636 3.09941C44.1795 3.77664 44.9039 4.15157 45.5831 3.93565Z" fill="#3685FB"/>
<path d="M43.8768 27.1008C38.5531 31.0013 32.6132 34.5209 26.418 37.3241C34.0461 39.1123 41.7136 34.6034 43.8768 27.1008Z" fill="#3685FB"/>
<path d="M58.6394 5.97532C56.7569 2.93466 48.053 5.18228 37.2467 10.392C32.7299 7.72631 26.9293 7.57123 22.1376 10.4902C17.4657 13.3346 14.9472 18.3696 15.0944 23.4714C4.80838 30.7247 -1.61058 37.444 0.352402 40.6142C2.90036 44.7286 18.2745 40.2294 34.1099 30.7462C49.9433 21.265 61.1873 10.0917 58.6394 5.97532ZM17.8799 31.6355C16.4764 31.9319 15.5263 31.8632 15.2122 31.3528C14.8864 30.8248 15.2829 29.9081 16.2487 28.7479C16.7139 29.8472 17.2576 30.7777 17.8799 31.6355ZM44.3645 21.4044C44.3135 20.949 44.2428 20.4955 44.1486 20.0421C37.9828 25.2204 27.0392 31.4549 20.1413 34.1167C20.5712 34.4897 21.0207 34.8312 21.4859 35.1492C14.4054 37.8797 8.78735 38.504 7.40345 36.2681C6.01562 34.0264 9.3841 29.9336 15.2731 25.3578C15.383 26.0429 15.542 26.7261 15.752 27.3994C11.9517 30.5519 9.87681 33.1215 10.5462 34.205C12.786 37.8248 38.8525 23.5735 46.2019 15.6018C47.9607 13.6938 48.8499 12.2902 48.3886 11.5443C47.7389 10.4961 44.655 11.0555 40.2952 12.7888C39.8497 12.3295 39.3785 11.9055 38.8858 11.5149C45.2675 8.87662 50.1769 8.04038 51.4784 10.1408C52.823 12.3177 49.8314 16.6756 44.3645 21.4044ZM41.2964 13.9352C42.5389 13.7291 43.3791 13.8371 43.6716 14.3102C43.9621 14.7793 43.6755 15.5429 42.9237 16.5087C42.4761 15.6077 41.9481 14.7636 41.2964 13.9352Z" fill="#3685FB"/>
</svg>
